<?xml version="1.0" encoding="utf-8"?>
<!-- Generator: Adobe Illustrator 17.0.0, SVG Export Plug-In . SVG Version: 6.00 Build 0)  -->
<!DOCTYPE svg PUBLIC "-//W3C//DTD SVG 1.1//EN" "http://www.w3.org/Graphics/SVG/1.1/DTD/svg11.dtd">
<svg version="1.1" id="Layer_7" xmlns="http://www.w3.org/2000/svg" xmlns:xlink="http://www.w3.org/1999/xlink" x="0px" y="0px"
	 width="960px" height="560px" viewBox="0 0 960 560" enable-background="new 0 0 960 560" xml:space="preserve">
<path fill="#1B1464" d="M963.047,561.057c0.374-2.851,0.641-5.764,0.83-8.856c-0.422-31.945-1.835-63.873-1.874-95.825
	c-1.547-11.026-1.733-22.21-1.735-33.376c-0.001-3.783,1.353-6.75,3.404-8.85c-0.284-11.382-0.651-22.763-0.672-34.15
	c0-0.245,0.018-0.478,0.034-0.713c-0.17-10.285,0.173-20.557,0.569-30.836c-0.246-9.817-0.49-19.633-0.676-29.451H-0.935
	c0.02,2.638,0.039,5.275,0.059,7.911c0.149,19.52,5.086,46.119-3.472,64.911c0.731,7.798,1.177,15.62,1.066,23.471
	c-0.09,6.377-0.726,12.729-1.196,19.084c0.008,5.079,0.127,10.158,0.474,15.234c0.765,11.199,2.254,22.337,2.74,33.56
	c0.472,10.904,0.595,22.92-3.353,33.186c-0.141,0.367-0.292,0.727-0.449,1.081c0.446,5.642,1.125,11.26,1.638,16.91
	c0.782,8.618,0.771,16.898-0.108,25.404c0.005,0.045,0.012,0.09,0.017,0.136c-0.011-0.002-0.021-0.003-0.032-0.005
	c-0.087,0.831-0.189,1.667-0.292,2.503c0.926-0.23,1.921-0.363,2.997-0.365c41.021-0.041,82.134-2.687,123.115,0.265
	c19.611,1.413,39.083-0.264,58.689,0.382c6.328,0.208,13.044-0.072,19.71,0.158c1.683-0.965,3.593-1.519,5.608-1.517
	c3.063,0.003,6.098,0.304,8.955,1.311c9.956-4.396,23.573-3.743,33.248-3.07c7.497,0.521,15.087,1.813,22.606,1.76
	c9.576-0.068,18.801-0.562,27.891,0.772c0.495-0.054,0.996-0.084,1.507-0.061c2.685,0.124,5.332,0.587,8.018,0.711
	c1.392,0.064,2.653,0.33,3.795,0.746c1.553-0.884,3.398-1.425,5.559-1.457c0.658-0.01,1.317-0.02,1.975-0.03
	c65.177-0.922,130.447-0.36,195.622,0.569c16.478,0.235,32.955,0.498,49.433,0.671c16.349,0.172,32.77-0.278,49.102,0.568
	c15.944,0.825,31.99,3.282,47.958,3.199c2.266-0.012,4.531-0.068,6.795-0.144c1.741-1.234,3.923-1.99,6.568-1.99
	c24.977-0.001,50.054,0.08,74.93-2.636c16.371-1.787,32.78-0.402,49.182,0.764C853.968,562.947,908.501,561.331,963.047,561.057z"/>
<linearGradient id="SVGID_1_" gradientUnits="userSpaceOnUse" x1="317.6693" y1="419.6407" x2="223.6693" y2="518.6407">
	<stop  offset="0" style="stop-color:#00647F"/>
	<stop  offset="1" style="stop-color:#1B1464"/>
</linearGradient>
<path fill="url(#SVGID_1_)" d="M345.781,345.226L104.85,561.717c5.715,0.203,11.428,0.478,17.138,0.865
	c16.877,1.142,33.65,0.133,50.495,0.222l107.76-21.682l86.098-193.479L345.781,345.226z"/>
<linearGradient id="SVGID_2_" gradientUnits="userSpaceOnUse" x1="480" y1="262" x2="480" y2="23">
	<stop  offset="0" style="stop-color:#00647F"/>
	<stop  offset="1" style="stop-color:#1B1464"/>
</linearGradient>
<path fill="url(#SVGID_2_)" d="M962.953,207.019c-0.221-5.136-0.371-10.276-0.387-15.424c-0.003-1.086,0.151-2.069,0.434-2.952V-2
	H-3v332h966V223.728C962.883,218.161,962.861,212.591,962.953,207.019z"/>
</svg>
