<?xml version="1.0" encoding="utf-8"?>
<!-- Generator: Adobe Illustrator 17.0.0, SVG Export Plug-In . SVG Version: 6.00 Build 0)  -->
<!DOCTYPE svg PUBLIC "-//W3C//DTD SVG 1.1//EN" "http://www.w3.org/Graphics/SVG/1.1/DTD/svg11.dtd">
<svg version="1.1" id="Layer_5_1_" xmlns="http://www.w3.org/2000/svg" xmlns:xlink="http://www.w3.org/1999/xlink" x="0px" y="0px"
	 width="960px" height="560px" viewBox="0 0 960 560" enable-background="new 0 0 960 560" xml:space="preserve">
<g>
	<linearGradient id="SVGID_1_" gradientUnits="userSpaceOnUse" x1="374.4586" y1="243.4727" x2="374.2652" y2="233.6062">
		<stop  offset="0" style="stop-color:#1DFFFF"/>
		<stop  offset="1" style="stop-color:#E900D0"/>
	</linearGradient>
	<polygon fill="url(#SVGID_1_)" points="343.839,242.372 399.663,242.979 404.889,234.889 364.968,233.789 	"/>
	<linearGradient id="SVGID_2_" gradientUnits="userSpaceOnUse" x1="371.5894" y1="302.5571" x2="370.4106" y2="242.4429">
		<stop  offset="0" style="stop-color:#1DFFFF"/>
		<stop  offset="1" style="stop-color:#E900D0"/>
	</linearGradient>
	<rect x="342" y="243" fill="url(#SVGID_2_)" width="58" height="59"/>
	<linearGradient id="SVGID_3_" gradientUnits="userSpaceOnUse" x1="402.2871" y1="297.2312" x2="401.0815" y2="235.7489">
		<stop  offset="0" style="stop-color:#1DFFFF"/>
		<stop  offset="1" style="stop-color:#E900D0"/>
	</linearGradient>
	<polygon fill="url(#SVGID_3_)" points="399.301,297.29 405.2,296.345 404.067,235.69 399.128,243.408 	"/>
</g>
<g>
	<linearGradient id="SVGID_4_" gradientUnits="userSpaceOnUse" x1="281.5" y1="281" x2="281.5" y2="350">
		<stop  offset="0" style="stop-color:#1B1424"/>
		<stop  offset="1" style="stop-color:#1B1464"/>
	</linearGradient>
	<rect x="223" y="281" fill="url(#SVGID_4_)" width="117" height="69"/>
	<linearGradient id="SVGID_5_" gradientUnits="userSpaceOnUse" x1="282.0031" y1="262.8389" x2="282.0031" y2="284">
		<stop  offset="0" style="stop-color:#1B1424"/>
		<stop  offset="1" style="stop-color:#1B1464"/>
	</linearGradient>
	<polygon fill="url(#SVGID_5_)" points="340.146,284 223.86,284 238.263,262.839 328.102,263.649 	"/>
</g>
<g>
	<linearGradient id="SVGID_6_" gradientUnits="userSpaceOnUse" x1="59" y1="275" x2="59" y2="304">
		<stop  offset="0" style="stop-color:#79B3AA"/>
		<stop  offset="1" style="stop-color:#943A00"/>
	</linearGradient>
	<rect x="41" y="275" fill="url(#SVGID_6_)" width="36" height="29"/>
	<linearGradient id="SVGID_7_" gradientUnits="userSpaceOnUse" x1="86.5" y1="269" x2="86.5" y2="302">
		<stop  offset="0" style="stop-color:#79B3AA"/>
		<stop  offset="1" style="stop-color:#943A00"/>
	</linearGradient>
	<rect x="76" y="269" fill="url(#SVGID_7_)" width="21" height="33"/>
	<linearGradient id="SVGID_8_" gradientUnits="userSpaceOnUse" x1="47" y1="296" x2="47" y2="328">
		<stop  offset="0" style="stop-color:#79B3AA"/>
		<stop  offset="1" style="stop-color:#943A00"/>
	</linearGradient>
	<rect x="17" y="296" fill="url(#SVGID_8_)" width="60" height="32"/>
	<linearGradient id="SVGID_9_" gradientUnits="userSpaceOnUse" x1="69.3855" y1="267.1718" x2="69.3855" y2="274.9179">
		<stop  offset="0" style="stop-color:#79B3AA"/>
		<stop  offset="1" style="stop-color:#943A00"/>
	</linearGradient>
	<polygon fill="url(#SVGID_9_)" points="76.037,274.918 40.051,274.55 54.401,267.172 98.72,268.779 	"/>
</g>
<g>
	<linearGradient id="SVGID_10_" gradientUnits="userSpaceOnUse" x1="470.6946" y1="314.2864" x2="607.5797" y2="314.2864">
		<stop  offset="0" style="stop-color:#7900AA"/>
		<stop  offset="1" style="stop-color:#350055"/>
	</linearGradient>
	<polygon fill="url(#SVGID_10_)" points="607.58,319.241 470.695,318.747 474.155,309.332 601.726,310.255 	"/>
	<linearGradient id="SVGID_11_" gradientUnits="userSpaceOnUse" x1="467" y1="360.5" x2="613" y2="360.5">
		<stop  offset="0" style="stop-color:#7900AA"/>
		<stop  offset="1" style="stop-color:#350055"/>
	</linearGradient>
	<rect x="467" y="320" fill="url(#SVGID_11_)" width="146" height="81"/>
</g>
<g>
	<linearGradient id="SVGID_12_" gradientUnits="userSpaceOnUse" x1="906" y1="188" x2="906" y2="266">
		<stop  offset="0" style="stop-color:#E2E900"/>
		<stop  offset="1" style="stop-color:#6F00D0"/>
	</linearGradient>
	<rect x="868" y="188" fill="url(#SVGID_12_)" width="76" height="78"/>
	<linearGradient id="SVGID_13_" gradientUnits="userSpaceOnUse" x1="902.5" y1="133" x2="902.5" y2="210">
		<stop  offset="0" style="stop-color:#E2E900"/>
		<stop  offset="1" style="stop-color:#6F00D0"/>
	</linearGradient>
	<rect x="872" y="133" fill="url(#SVGID_13_)" width="61" height="77"/>
	<linearGradient id="SVGID_14_" gradientUnits="userSpaceOnUse" x1="868" y1="134" x2="868" y2="209">
		<stop  offset="0" style="stop-color:#E2E900"/>
		<stop  offset="1" style="stop-color:#6F00D0"/>
	</linearGradient>
	<rect x="862" y="134" fill="url(#SVGID_14_)" width="12" height="75"/>
	<linearGradient id="SVGID_15_" gradientUnits="userSpaceOnUse" x1="866.5" y1="209" x2="866.5" y2="268">
		<stop  offset="0" style="stop-color:#E2E900"/>
		<stop  offset="1" style="stop-color:#6F00D0"/>
	</linearGradient>
	<rect x="859" y="209" fill="url(#SVGID_15_)" width="15" height="59"/>
</g>
<g>
	<linearGradient id="SVGID_16_" gradientUnits="userSpaceOnUse" x1="28.5" y1="192" x2="28.5" y2="220">
		<stop  offset="0" style="stop-color:#79B3AA"/>
		<stop  offset="1" style="stop-color:#943A00"/>
	</linearGradient>
	<rect x="17" y="192" fill="url(#SVGID_16_)" width="23" height="28"/>
	<linearGradient id="SVGID_17_" gradientUnits="userSpaceOnUse" x1="30.5" y1="224" x2="30.5" y2="304">
		<stop  offset="0" style="stop-color:#79B3AA"/>
		<stop  offset="1" style="stop-color:#943A00"/>
	</linearGradient>
	<rect x="5" y="224" fill="url(#SVGID_17_)" width="51" height="80"/>
	<linearGradient id="SVGID_18_" gradientUnits="userSpaceOnUse" x1="28.376" y1="217.8725" x2="28.376" y2="223.7968">
		<stop  offset="0" style="stop-color:#79B3AA"/>
		<stop  offset="1" style="stop-color:#943A00"/>
	</linearGradient>
	<polygon fill="url(#SVGID_18_)" points="54.474,223.797 2.902,223.343 2.278,217.873 53.517,219.843 	"/>
</g>
<g>
	<linearGradient id="SVGID_19_" gradientUnits="userSpaceOnUse" x1="904" y1="296.5" x2="952" y2="296.5">
		<stop  offset="0" style="stop-color:#7900AA"/>
		<stop  offset="1" style="stop-color:#350055"/>
	</linearGradient>
	<rect x="904" y="265" fill="url(#SVGID_19_)" width="48" height="63"/>
	<g>
		<rect x="867" y="189" fill="#3800AA" width="66" height="68"/>
		<rect x="870" y="141" fill="#3800AA" width="53" height="67"/>
		<rect x="861" y="142" fill="#3800AA" width="11" height="65"/>
		<rect x="859" y="207" fill="#3800AA" width="13" height="52"/>
	</g>
	<linearGradient id="SVGID_20_" gradientUnits="userSpaceOnUse" x1="840" y1="323" x2="905" y2="323">
		<stop  offset="0" style="stop-color:#7900AA"/>
		<stop  offset="1" style="stop-color:#350055"/>
	</linearGradient>
	<rect x="840" y="251" fill="url(#SVGID_20_)" width="65" height="144"/>
	<g>
		<linearGradient id="SVGID_21_" gradientUnits="userSpaceOnUse" x1="884" y1="150.5" x2="918" y2="150.5">
			<stop  offset="0" style="stop-color:#7900AA"/>
			<stop  offset="1" style="stop-color:#350055"/>
		</linearGradient>
		<rect x="884" y="148" fill="url(#SVGID_21_)" width="34" height="5"/>
		<linearGradient id="SVGID_22_" gradientUnits="userSpaceOnUse" x1="884" y1="161" x2="918" y2="161">
			<stop  offset="0" style="stop-color:#7900AA"/>
			<stop  offset="1" style="stop-color:#350055"/>
		</linearGradient>
		<rect x="884" y="158" fill="url(#SVGID_22_)" width="34" height="6"/>
		<linearGradient id="SVGID_23_" gradientUnits="userSpaceOnUse" x1="884" y1="170.5" x2="918" y2="170.5">
			<stop  offset="0" style="stop-color:#7900AA"/>
			<stop  offset="1" style="stop-color:#350055"/>
		</linearGradient>
		<rect x="884" y="168" fill="url(#SVGID_23_)" width="34" height="5"/>
		<linearGradient id="SVGID_24_" gradientUnits="userSpaceOnUse" x1="884" y1="181.5" x2="918" y2="181.5">
			<stop  offset="0" style="stop-color:#7900AA"/>
			<stop  offset="1" style="stop-color:#350055"/>
		</linearGradient>
		<rect x="884" y="179" fill="url(#SVGID_24_)" width="34" height="5"/>
		<linearGradient id="SVGID_25_" gradientUnits="userSpaceOnUse" x1="884" y1="191.5" x2="918" y2="191.5">
			<stop  offset="0" style="stop-color:#7900AA"/>
			<stop  offset="1" style="stop-color:#350055"/>
		</linearGradient>
		<rect x="884" y="189" fill="url(#SVGID_25_)" width="34" height="5"/>
	</g>
	<g>
		<linearGradient id="SVGID_26_" gradientUnits="userSpaceOnUse" x1="882" y1="216.5" x2="927" y2="216.5">
			<stop  offset="0" style="stop-color:#7900AA"/>
			<stop  offset="1" style="stop-color:#350055"/>
		</linearGradient>
		<rect x="882" y="213" fill="url(#SVGID_26_)" width="45" height="7"/>
		<linearGradient id="SVGID_27_" gradientUnits="userSpaceOnUse" x1="882" y1="230" x2="927" y2="230">
			<stop  offset="0" style="stop-color:#7900AA"/>
			<stop  offset="1" style="stop-color:#350055"/>
		</linearGradient>
		<rect x="882" y="226" fill="url(#SVGID_27_)" width="45" height="8"/>
		<linearGradient id="SVGID_28_" gradientUnits="userSpaceOnUse" x1="882" y1="242.5" x2="927" y2="242.5">
			<stop  offset="0" style="stop-color:#7900AA"/>
			<stop  offset="1" style="stop-color:#350055"/>
		</linearGradient>
		<rect x="882" y="239" fill="url(#SVGID_28_)" width="45" height="7"/>
		<linearGradient id="SVGID_29_" gradientUnits="userSpaceOnUse" x1="882" y1="257" x2="927" y2="257">
			<stop  offset="0" style="stop-color:#7900AA"/>
			<stop  offset="1" style="stop-color:#350055"/>
		</linearGradient>
		<rect x="882" y="254" fill="url(#SVGID_29_)" width="45" height="6"/>
	</g>
	<g>
		<linearGradient id="SVGID_30_" gradientUnits="userSpaceOnUse" x1="863.8813" y1="147.4658" x2="874.315" y2="147.4658">
			<stop  offset="0" style="stop-color:#7900AA"/>
			<stop  offset="1" style="stop-color:#350055"/>
		</linearGradient>
		<polygon fill="url(#SVGID_30_)" points="874.315,151.411 863.881,148.22 863.909,143.52 874.266,146.891 		"/>
		<linearGradient id="SVGID_31_" gradientUnits="userSpaceOnUse" x1="863.8181" y1="157.2928" x2="874.4257" y2="157.2928">
			<stop  offset="0" style="stop-color:#7900AA"/>
			<stop  offset="1" style="stop-color:#350055"/>
		</linearGradient>
		<polygon fill="url(#SVGID_31_)" points="874.426,161.594 863.818,158.816 863.853,152.992 874.365,155.999 		"/>
		<linearGradient id="SVGID_32_" gradientUnits="userSpaceOnUse" x1="863.7648" y1="166.4686" x2="874.5189" y2="166.4686">
			<stop  offset="0" style="stop-color:#7900AA"/>
			<stop  offset="1" style="stop-color:#350055"/>
		</linearGradient>
		<polygon fill="url(#SVGID_32_)" points="874.519,170.177 863.765,167.76 863.795,162.76 874.467,165.38 		"/>
		<linearGradient id="SVGID_33_" gradientUnits="userSpaceOnUse" x1="863.6974" y1="177.4279" x2="874.6364" y2="177.4279">
			<stop  offset="0" style="stop-color:#7900AA"/>
			<stop  offset="1" style="stop-color:#350055"/>
		</linearGradient>
		<polygon fill="url(#SVGID_33_)" points="874.636,180.99 863.697,179.044 863.728,173.866 874.583,176.03 		"/>
		<linearGradient id="SVGID_34_" gradientUnits="userSpaceOnUse" x1="863.6342" y1="187.7239" x2="874.7468" y2="187.7239">
			<stop  offset="0" style="stop-color:#7900AA"/>
			<stop  offset="1" style="stop-color:#350055"/>
		</linearGradient>
		<polygon fill="url(#SVGID_34_)" points="874.747,191.142 863.634,189.654 863.666,184.306 874.691,186.027 		"/>
	</g>
	<g>
		<linearGradient id="SVGID_35_" gradientUnits="userSpaceOnUse" x1="862.8813" y1="213.4658" x2="873.315" y2="213.4658">
			<stop  offset="0" style="stop-color:#7900AA"/>
			<stop  offset="1" style="stop-color:#350055"/>
		</linearGradient>
		<polygon fill="url(#SVGID_35_)" points="873.315,217.411 862.881,214.22 862.909,209.52 873.266,212.891 		"/>
		<linearGradient id="SVGID_36_" gradientUnits="userSpaceOnUse" x1="862.8181" y1="223.2928" x2="873.4257" y2="223.2928">
			<stop  offset="0" style="stop-color:#7900AA"/>
			<stop  offset="1" style="stop-color:#350055"/>
		</linearGradient>
		<polygon fill="url(#SVGID_36_)" points="873.426,227.594 862.818,224.816 862.853,218.992 873.365,221.999 		"/>
		<linearGradient id="SVGID_37_" gradientUnits="userSpaceOnUse" x1="862.7648" y1="232.4686" x2="873.5189" y2="232.4686">
			<stop  offset="0" style="stop-color:#7900AA"/>
			<stop  offset="1" style="stop-color:#350055"/>
		</linearGradient>
		<polygon fill="url(#SVGID_37_)" points="873.519,236.177 862.765,233.76 862.795,228.76 873.467,231.38 		"/>
		<linearGradient id="SVGID_38_" gradientUnits="userSpaceOnUse" x1="862.6974" y1="243.4279" x2="873.6364" y2="243.4279">
			<stop  offset="0" style="stop-color:#7900AA"/>
			<stop  offset="1" style="stop-color:#350055"/>
		</linearGradient>
		<polygon fill="url(#SVGID_38_)" points="873.636,246.99 862.697,245.044 862.728,239.866 873.583,242.03 		"/>
		<linearGradient id="SVGID_39_" gradientUnits="userSpaceOnUse" x1="862.6342" y1="253.7239" x2="873.7468" y2="253.7239">
			<stop  offset="0" style="stop-color:#7900AA"/>
			<stop  offset="1" style="stop-color:#350055"/>
		</linearGradient>
		<polygon fill="url(#SVGID_39_)" points="873.747,257.142 862.634,255.654 862.666,250.306 873.691,252.027 		"/>
	</g>
	<g>
		
			<linearGradient id="SVGID_40_" gradientUnits="userSpaceOnUse" x1="303.2979" y1="-515.459" x2="395.7979" y2="-515.459" gradientTransform="matrix(-0.0138 0.9643 -0.2098 -0.003 798.1136 -210.0588)">
			<stop  offset="0.2551" style="stop-color:#E2E900;stop-opacity:0.3"/>
			<stop  offset="0.2566" style="stop-color:#E3EA09;stop-opacity:0.3"/>
			<stop  offset="0.2646" style="stop-color:#E8EE37;stop-opacity:0.3"/>
			<stop  offset="0.2736" style="stop-color:#EDF162;stop-opacity:0.3"/>
			<stop  offset="0.2833" style="stop-color:#F1F588;stop-opacity:0.3"/>
			<stop  offset="0.2939" style="stop-color:#F5F8A8;stop-opacity:0.3"/>
			<stop  offset="0.3056" style="stop-color:#F8FAC4;stop-opacity:0.3"/>
			<stop  offset="0.3188" style="stop-color:#FBFCDA;stop-opacity:0.3"/>
			<stop  offset="0.3342" style="stop-color:#FDFDEB;stop-opacity:0.3"/>
			<stop  offset="0.3532" style="stop-color:#FEFEF6;stop-opacity:0.3"/>
			<stop  offset="0.3799" style="stop-color:#FFFFFD;stop-opacity:0.3"/>
			<stop  offset="0.4541" style="stop-color:#FFFFFF;stop-opacity:0.3"/>
			<stop  offset="1" style="stop-color:#BF6000"/>
		</linearGradient>
		<polygon fill="url(#SVGID_40_)" points="890.585,173.022 891.864,83.823 912.21,84.114 910.93,173.314 		"/>
		
			<linearGradient id="SVGID_41_" gradientUnits="userSpaceOnUse" x1="289.5376" y1="-2985.2725" x2="382.0376" y2="-2985.2725" gradientTransform="matrix(-0.0138 0.9643 -0.0767 -0.0011 693.2734 -211.5623)">
			<stop  offset="0.2551" style="stop-color:#E2E900;stop-opacity:0.3"/>
			<stop  offset="0.2566" style="stop-color:#E3EA09;stop-opacity:0.3"/>
			<stop  offset="0.2646" style="stop-color:#E8EE37;stop-opacity:0.3"/>
			<stop  offset="0.2736" style="stop-color:#EDF162;stop-opacity:0.3"/>
			<stop  offset="0.2833" style="stop-color:#F1F588;stop-opacity:0.3"/>
			<stop  offset="0.2939" style="stop-color:#F5F8A8;stop-opacity:0.3"/>
			<stop  offset="0.3056" style="stop-color:#F8FAC4;stop-opacity:0.3"/>
			<stop  offset="0.3188" style="stop-color:#FBFCDA;stop-opacity:0.3"/>
			<stop  offset="0.3342" style="stop-color:#FDFDEB;stop-opacity:0.3"/>
			<stop  offset="0.3532" style="stop-color:#FEFEF6;stop-opacity:0.3"/>
			<stop  offset="0.3799" style="stop-color:#FFFFFD;stop-opacity:0.3"/>
			<stop  offset="0.4541" style="stop-color:#FFFFFF;stop-opacity:0.3"/>
			<stop  offset="1" style="stop-color:#BF6000"/>
		</linearGradient>
		<polygon fill="url(#SVGID_41_)" points="913.132,160.073 914.411,70.873 921.847,70.98 920.568,160.18 		"/>
		
			<linearGradient id="SVGID_42_" gradientUnits="userSpaceOnUse" x1="287.9546" y1="-2554.5313" x2="380.4546" y2="-2554.5313" gradientTransform="matrix(-0.0138 0.9643 -0.0767 -0.0011 693.2734 -211.5623)">
			<stop  offset="0.2551" style="stop-color:#E2E900;stop-opacity:0.3"/>
			<stop  offset="0.2566" style="stop-color:#E3EA09;stop-opacity:0.3"/>
			<stop  offset="0.2646" style="stop-color:#E8EE37;stop-opacity:0.3"/>
			<stop  offset="0.2736" style="stop-color:#EDF162;stop-opacity:0.3"/>
			<stop  offset="0.2833" style="stop-color:#F1F588;stop-opacity:0.3"/>
			<stop  offset="0.2939" style="stop-color:#F5F8A8;stop-opacity:0.3"/>
			<stop  offset="0.3056" style="stop-color:#F8FAC4;stop-opacity:0.3"/>
			<stop  offset="0.3188" style="stop-color:#FBFCDA;stop-opacity:0.3"/>
			<stop  offset="0.3342" style="stop-color:#FDFDEB;stop-opacity:0.3"/>
			<stop  offset="0.3532" style="stop-color:#FEFEF6;stop-opacity:0.3"/>
			<stop  offset="0.3799" style="stop-color:#FFFFFD;stop-opacity:0.3"/>
			<stop  offset="0.4541" style="stop-color:#FFFFFF;stop-opacity:0.3"/>
			<stop  offset="1" style="stop-color:#BF6000"/>
		</linearGradient>
		<polygon fill="url(#SVGID_42_)" points="880.132,158.073 881.411,68.873 888.847,68.98 887.568,158.18 		"/>
	</g>
</g>
<g>
	<linearGradient id="SVGID_43_" gradientUnits="userSpaceOnUse" x1="939.7878" y1="271.0992" x2="991.7878" y2="271.0992">
		<stop  offset="0" style="stop-color:#1B1424"/>
		<stop  offset="1" style="stop-color:#1B1464"/>
	</linearGradient>
	<path fill="url(#SVGID_43_)" d="M962.114,229.099h-22.326v84h25.178C965.561,285.054,962.911,257.101,962.114,229.099z"/>
	<linearGradient id="SVGID_44_" gradientUnits="userSpaceOnUse" x1="937.7878" y1="221.5992" x2="988.7878" y2="221.5992">
		<stop  offset="0" style="stop-color:#1B1424"/>
		<stop  offset="1" style="stop-color:#1B1464"/>
	</linearGradient>
	<path fill="url(#SVGID_44_)" d="M961.897,214.099h-24.109v15h24.326C961.971,224.101,961.891,219.101,961.897,214.099z"/>
</g>
<g>
	<linearGradient id="SVGID_45_" gradientUnits="userSpaceOnUse" x1="51" y1="327" x2="51" y2="386">
		<stop  offset="0" style="stop-color:#1B1424"/>
		<stop  offset="1" style="stop-color:#1B1464"/>
	</linearGradient>
	<rect x="5" y="327" fill="url(#SVGID_45_)" width="92" height="59"/>
	<linearGradient id="SVGID_46_" gradientUnits="userSpaceOnUse" x1="105.5245" y1="314.8955" x2="105.5245" y2="383.5348">
		<stop  offset="0" style="stop-color:#1B1424"/>
		<stop  offset="1" style="stop-color:#1B1464"/>
	</linearGradient>
	<polygon fill="url(#SVGID_46_)" points="114.278,366.657 94.532,383.535 96.418,326.26 116.517,314.895 	"/>
	<linearGradient id="SVGID_47_" gradientUnits="userSpaceOnUse" x1="59.3217" y1="313.3374" x2="59.3217" y2="327.5857">
		<stop  offset="0" style="stop-color:#1B1424"/>
		<stop  offset="1" style="stop-color:#1B1464"/>
	</linearGradient>
	<polygon fill="url(#SVGID_47_)" points="95.434,327.586 0.954,326.601 24.759,313.337 117.69,313.983 	"/>
</g>
<g>
	<linearGradient id="SVGID_48_" gradientUnits="userSpaceOnUse" x1="136.3524" y1="275.5869" x2="136.3524" y2="297">
		<stop  offset="0" style="stop-color:#1B1424"/>
		<stop  offset="1" style="stop-color:#1B1464"/>
	</linearGradient>
	<polygon fill="url(#SVGID_48_)" points="148.45,297 89.306,297 118.745,275.587 183.399,276.337 	"/>
	<linearGradient id="SVGID_49_" gradientUnits="userSpaceOnUse" x1="123.5" y1="294" x2="123.5" y2="315">
		<stop  offset="0" style="stop-color:#1B1424"/>
		<stop  offset="1" style="stop-color:#1B1464"/>
	</linearGradient>
	<rect x="91" y="294" fill="url(#SVGID_49_)" width="65" height="21"/>
	<linearGradient id="SVGID_50_" gradientUnits="userSpaceOnUse" x1="136.5" y1="316" x2="136.5" y2="334">
		<stop  offset="0" style="stop-color:#1B1424"/>
		<stop  offset="1" style="stop-color:#1B1464"/>
	</linearGradient>
	<rect x="107" y="316" fill="url(#SVGID_50_)" width="59" height="18"/>
</g>
</svg>
