<?xml version="1.0" encoding="utf-8"?>
<!-- Generator: Adobe Illustrator 17.0.0, SVG Export Plug-In . SVG Version: 6.00 Build 0)  -->
<!DOCTYPE svg PUBLIC "-//W3C//DTD SVG 1.1//EN" "http://www.w3.org/Graphics/SVG/1.1/DTD/svg11.dtd">
<svg version="1.1" id="Layer_1" xmlns="http://www.w3.org/2000/svg" xmlns:xlink="http://www.w3.org/1999/xlink" x="0px" y="0px"
	 width="960px" height="560px" viewBox="0 0 960 560" enable-background="new 0 0 960 560" xml:space="preserve">
<linearGradient id="SVGID_1_" gradientUnits="userSpaceOnUse" x1="463.2125" y1="950.7436" x2="462.7875" y2="975.2564">
	<stop  offset="0" style="stop-color:#330599"/>
	<stop  offset="1" style="stop-color:#00D4A8"/>
</linearGradient>
<rect x="448" y="951" fill="url(#SVGID_1_)" width="30" height="24"/>
<linearGradient id="SVGID_2_" gradientUnits="userSpaceOnUse" x1="905.5" y1="319" x2="962.5046" y2="319">
	<stop  offset="0" style="stop-color:#1B1424"/>
	<stop  offset="1" style="stop-color:#1B1464"/>
</linearGradient>
<path fill="url(#SVGID_2_)" d="M962.371,312.5H905.5v13h57.005C962.439,321.167,962.396,316.834,962.371,312.5z"/>
<path opacity="0.4" fill="#FFFFFF" d="M479.146,254.826c0-5.781,5.854-10.687,14.854-12.52V242h4.07c0.81,0,1.629-0.283,2.463-0.283
	c0.752,0,1.495-0.073,2.227-0.027c1.922-9.206,13.204-16.322,26.838-16.322c4.547,0,8.829,0.766,12.594,2.155
	c4.41-9.485,17.94-16.403,33.953-16.403c17.535,0,32.089,8.276,34.953,19.155c2.784-0.678,5.77-1.054,8.882-1.054
	c13.976,0,25.48,7.426,26.964,16.969c13.016,1.111,22.763,5.629,22.763,11.039c0,6.243-12.976,11.13-28.983,11.13
	c-4.644,0-9.029-0.359-12.919-1.359H507.817c-2.281,1-4.725,0.78-7.284,0.78c-2.559,0-5.004,0.22-7.284-0.78h-0.003l0.189,0.173
	C485.004,265.34,479.146,260.608,479.146,254.826z"/>
<line fill="#7F6100" x1="890" y1="370" x2="900" y2="370"/>
<g>
	<g>
		<path fill="#FFFFFF" d="M887.446,374.268c-0.412-1.071-0.649-1.797,0.281-2.541c0.64-0.511,0.53-1.591,0-2.121
			c-0.626-0.626-1.483-0.51-2.121,0c-1.731,1.384-1.797,3.523-1.052,5.459c0.293,0.763,0.998,1.281,1.845,1.048
			C887.129,375.912,887.74,375.032,887.446,374.268L887.446,374.268z"/>
	</g>
</g>
<path opacity="0.4" fill="#FFFFFF" d="M963,380c-0.006-3.431,1.566-5.839,3.779-7.242c-1.156-19.292-2.248-38.584-1.838-57.913
	c-4.772-2.286-10.152-3.579-15.849-3.579c-5.961,0-11.576,1.377-16.511,3.856c-5.781-16.921-23.519-29.258-44.513-29.258
	c-22.988,0-42.068,14.767-45.823,34.176c-3.649-1.209-7.564-1.878-11.644-1.878c-18.323,0-33.404,13.248-35.35,30.274
	c-17.064,1.981-29.842,10.043-29.842,19.694c0,11.137,17.012,20.47,37.996,20.47c6.088,0,11.836-0.811,16.937-1.811h142.708
	C963.023,384.526,963.004,382.263,963,380z"/>
<g>
	<g>
		<ellipse fill="#F2FF15" cx="635.503" cy="300" rx="22.503" ry="22"/>
		<ellipse fill="#BF8600" cx="639.003" cy="300.179" rx="19.003" ry="19.821"/>
		<path fill="none" stroke="#D3FF55" stroke-miterlimit="10" d="M635.793,312.883c6.591,2.479,13.888-0.707,16.299-7.117
			c2.411-6.409-0.978-13.615-7.569-16.094"/>
		<path fill="none" stroke="#7F6100" stroke-width="3" stroke-miterlimit="10" d="M642.003,287.742
			c6.68,2.229,10.337,9.302,8.169,15.798c-2.168,6.496-9.34,9.954-16.019,7.725"/>
		<path fill="none" stroke="#D3FF55" stroke-width="2" stroke-miterlimit="10" d="M632.913,288.062
			c-6.558,2.566-9.851,9.815-7.356,16.192"/>
		<path fill="none" stroke="#FFFFFF" stroke-width="2" stroke-miterlimit="10" d="M625.77,283.51
			c-6.797,1.838-10.859,8.687-9.071,15.298"/>
	</g>
	<g>
		
			<line fill="none" stroke="#7F6100" stroke-width="3" stroke-miterlimit="10" x1="641.99" y1="304.515" x2="633.173" y2="306.073"/>
		<g>
			
				<line fill="none" stroke="#7F6100" stroke-width="3" stroke-miterlimit="10" x1="633.903" y1="294.344" x2="642.582" y2="293.492"/>
			
				<line fill="none" stroke="#7F6100" stroke-width="3" stroke-miterlimit="10" x1="642.582" y1="293.492" x2="633.251" y2="306.864"/>
			<path fill="none" stroke="#7F6100" stroke-width="3" stroke-miterlimit="10" d="M633.844,294.344
				c-1.806,0.251-4.176,5.006-3.964,8.039"/>
			<path fill="none" stroke="#7F6100" stroke-width="3" stroke-miterlimit="10" d="M642.074,304.68
				c1.503-0.443,3.367-5.473,3.188-8.521"/>
		</g>
	</g>
</g>
<g opacity="0.4">
	<g>
		<ellipse fill="#F2FF15" cx="828.517" cy="198.659" rx="13.517" ry="13.341"/>
		<ellipse fill="#BF8600" cx="830.62" cy="198.768" rx="11.415" ry="12.019"/>
		<path fill="none" stroke="#D3FF55" stroke-miterlimit="10" d="M828.692,206.471c3.959,1.503,8.343-0.429,9.791-4.316
			s-0.587-8.256-4.546-9.759"/>
		<path fill="none" stroke="#7F6100" stroke-width="3" stroke-miterlimit="10" d="M832.422,191.226
			c4.012,1.352,6.209,5.641,4.907,9.58c-1.302,3.939-5.61,6.036-9.623,4.685"/>
		<path fill="none" stroke="#D3FF55" stroke-width="2" stroke-miterlimit="10" d="M826.961,191.42
			c-3.939,1.556-5.917,5.952-4.418,9.819"/>
		<path fill="none" stroke="#FFFFFF" stroke-width="2" stroke-miterlimit="10" d="M822.671,188.659
			c-4.083,1.115-6.523,5.268-5.449,9.277"/>
	</g>
	<g>
		
			<line fill="none" stroke="#7F6100" stroke-width="3" stroke-miterlimit="10" x1="826.956" y1="195.23" x2="832.169" y2="194.713"/>
		
			<line fill="none" stroke="#7F6100" stroke-width="3" stroke-miterlimit="10" x1="832.169" y1="194.713" x2="826.564" y2="202.822"/>
		<path fill="none" stroke="#7F6100" stroke-width="3" stroke-miterlimit="10" d="M826.956,195.23
			c-0.915,0.091-2.117,1.814-2.009,2.913"/>
		<g>
			
				<line fill="none" stroke="#7F6100" stroke-width="3" stroke-miterlimit="10" x1="831.814" y1="201.397" x2="826.517" y2="202.342"/>
			<path fill="none" stroke="#7F6100" stroke-width="3" stroke-miterlimit="10" d="M831.823,201.497
				c0.807-0.145,1.807-1.789,1.711-2.785"/>
		</g>
	</g>
</g>
<path opacity="0.4" fill="#FFFFFF" d="M157.73,251.85v-0.691h-4.734c-0.789,0-1.588-0.135-2.401-0.135
	c-0.733,0-1.457,0.008-2.17,0.059c-1.873-10.151-12.867-17.953-26.155-17.953c-4.431,0-8.605,0.867-12.273,2.399
	c-4.297-10.458-17.483-18.076-33.089-18.076c-17.089,0-31.272,9.131-34.063,21.126c-2.713-0.747-5.623-1.159-8.655-1.159
	c-13.62,0-24.831,8.189-26.277,18.712c-7.316,0.706-13.557,2.667-17.543,5.341c0.854,1.373,1.359,2.977,1.361,4.686
	c0,0.606,0.015,1.209,0.044,1.811c0.115,0.461,0.255,0.915,0.436,1.368c-0.034-0.079-0.067-0.159-0.1-0.238
	c0.622,1.754,0.837,3.497,0.3,5.452c-0.137,0.499-0.325,0.981-0.545,1.445c5.174,2.828,13.153,4.62,22.11,4.62
	c4.525,0,8.799-0.458,12.59-1.458h116.932c2.223,1,4.605,0.86,7.099,0.86s4.876,0.14,7.099-0.86h0.003l0.008,0.15
	c8.216-2.022,14.116-7.28,14.116-13.654S165.73,253.871,157.73,251.85z"/>
<linearGradient id="SVGID_3_" gradientUnits="userSpaceOnUse" x1="818.7284" y1="412.0836" x2="962.4748" y2="412.0836">
	<stop  offset="0" style="stop-color:#E2E900"/>
	<stop  offset="1" style="stop-color:#E900D0"/>
</linearGradient>
<path opacity="0.5" fill="none" stroke="url(#SVGID_3_)" stroke-width="8" stroke-miterlimit="10" d="M958.474,412.777
	c0.246,5.813-49.921,8.178-92.199,5.943c-29.589-1.564-45.732-5.042-43.307-8.042c2.336-2.891,22.008-5.472,50.459-5.972
	C912.859,404.013,958.244,407.354,958.474,412.777z"/>
<linearGradient id="SVGID_4_" gradientUnits="userSpaceOnUse" x1="792.9069" y1="415.012" x2="966.4808" y2="415.012">
	<stop  offset="0" style="stop-color:#E2E900"/>
	<stop  offset="1" style="stop-color:#E900D0"/>
</linearGradient>
<path opacity="0.5" fill="none" stroke="url(#SVGID_4_)" stroke-width="5" stroke-miterlimit="10" d="M963.392,403.313
	c-24.212-5.227-61.327-7.855-95.358-6.808c-40.758,1.254-68.938,7.729-72.285,14.981c-3.473,7.526,19.652,16.249,62.04,20.173
	c37.74,3.494,79.861,2.505,106.169-2.263C963.864,420.7,963.616,412.007,963.392,403.313z"/>
<g>
	<g>
		<ellipse fill="#F2FF15" cx="892.503" cy="371" rx="22.503" ry="22"/>
		<ellipse fill="#BF8600" cx="896.003" cy="371.179" rx="19.003" ry="19.821"/>
		<path fill="none" stroke="#D3FF55" stroke-miterlimit="10" d="M892.793,383.883c6.591,2.479,13.888-0.707,16.299-7.117
			c2.411-6.409-0.978-13.615-7.569-16.094"/>
		<path fill="none" stroke="#7F6100" stroke-width="3" stroke-miterlimit="10" d="M899.003,358.742
			c6.68,2.229,10.337,9.302,8.169,15.798c-2.168,6.496-9.34,9.954-16.019,7.725"/>
		<path fill="none" stroke="#D3FF55" stroke-width="2" stroke-miterlimit="10" d="M889.913,359.062
			c-6.558,2.566-9.851,9.815-7.356,16.192"/>
		<path fill="none" stroke="#FFFFFF" stroke-width="2" stroke-miterlimit="10" d="M882.77,354.51
			c-6.797,1.838-10.859,8.687-9.071,15.298"/>
	</g>
	<g>
		
			<line fill="none" stroke="#7F6100" stroke-width="3" stroke-miterlimit="10" x1="898.99" y1="375.515" x2="890.173" y2="377.073"/>
		<g>
			
				<line fill="none" stroke="#7F6100" stroke-width="3" stroke-miterlimit="10" x1="890.903" y1="365.344" x2="899.582" y2="364.492"/>
			
				<line fill="none" stroke="#7F6100" stroke-width="3" stroke-miterlimit="10" x1="899.582" y1="364.492" x2="890.251" y2="377.864"/>
			<path fill="none" stroke="#7F6100" stroke-width="3" stroke-miterlimit="10" d="M890.844,365.344
				c-1.806,0.251-4.176,5.006-3.964,8.039"/>
			<path fill="none" stroke="#7F6100" stroke-width="3" stroke-miterlimit="10" d="M899.074,375.68
				c1.503-0.443,3.367-5.473,3.188-8.521"/>
		</g>
	</g>
</g>
<linearGradient id="SVGID_5_" gradientUnits="userSpaceOnUse" x1="153.4225" y1="272.4434" x2="260.8699" y2="272.4434">
	<stop  offset="0" style="stop-color:#E2E900"/>
	<stop  offset="1" style="stop-color:#E900D0"/>
</linearGradient>
<path opacity="0.5" fill="none" stroke="url(#SVGID_5_)" stroke-width="8" stroke-miterlimit="10" d="M256.869,272.933
	c0.18,4.106-36.572,5.777-67.545,4.198c-21.677-1.105-33.503-3.561-31.727-5.681c1.712-2.042,16.123-3.866,36.966-4.219
	C223.452,266.742,256.701,269.103,256.869,272.933z"/>
<g>
	<g>
		<ellipse fill="#F2FF15" cx="207.099" cy="255.142" rx="16.099" ry="14.858"/>
		<ellipse fill="#BF8600" cx="209.603" cy="255.263" rx="13.595" ry="13.386"/>
		<path fill="none" stroke="#D3FF55" stroke-miterlimit="10" d="M207.307,263.842c4.715,1.674,9.936-0.478,11.66-4.806
			c1.725-4.329-0.7-9.195-5.415-10.869"/>
		<path fill="none" stroke="#7F6100" stroke-width="3" stroke-miterlimit="10" d="M211.749,246.863
			c4.779,1.505,7.395,6.282,5.844,10.669c-1.551,4.387-6.682,6.723-11.46,5.217"/>
		<path fill="none" stroke="#D3FF55" stroke-width="2" stroke-miterlimit="10" d="M205.246,247.079
			c-4.691,1.733-7.047,6.629-5.262,10.936"/>
		<path fill="none" stroke="#FFFFFF" stroke-width="2" stroke-miterlimit="10" d="M200.136,244.005
			c-4.863,1.242-7.768,5.867-6.489,10.332"/>
	</g>
	<g>
		
			<line fill="none" stroke="#7F6100" stroke-width="3" stroke-miterlimit="10" x1="211.74" y1="258.191" x2="205.432" y2="259.243"/>
		<g>
			
				<line fill="none" stroke="#7F6100" stroke-width="3" stroke-miterlimit="10" x1="205.954" y1="251.322" x2="212.164" y2="250.746"/>
			
				<line fill="none" stroke="#7F6100" stroke-width="3" stroke-miterlimit="10" x1="212.164" y1="250.746" x2="205.488" y2="259.778"/>
			<path fill="none" stroke="#7F6100" stroke-width="3" stroke-miterlimit="10" d="M205.912,251.322
				c-1.292,0.169-2.988,3.381-2.836,5.429"/>
			<path fill="none" stroke="#7F6100" stroke-width="3" stroke-miterlimit="10" d="M211.8,258.302
				c1.076-0.299,2.409-3.696,2.28-5.755"/>
		</g>
	</g>
</g>
<linearGradient id="SVGID_6_" gradientUnits="userSpaceOnUse" x1="129.9069" y1="275.5123" x2="277.3699" y2="275.5123">
	<stop  offset="0" style="stop-color:#E2E900"/>
	<stop  offset="1" style="stop-color:#E900D0"/>
</linearGradient>
<path opacity="0.5" fill="none" stroke="url(#SVGID_6_)" stroke-width="5" stroke-miterlimit="10" d="M274.869,276.74
	c0.258,10.301-52.391,14.493-96.761,10.532c-31.053-2.772-47.994-8.934-45.45-14.251c2.452-5.123,23.097-9.697,52.956-10.583
	C226.997,261.211,274.628,267.132,274.869,276.74z"/>
<linearGradient id="SVGID_7_" gradientUnits="userSpaceOnUse" x1="345.4225" y1="310.4434" x2="452.8699" y2="310.4434">
	<stop  offset="0" style="stop-color:#E2E900"/>
	<stop  offset="1" style="stop-color:#E900D0"/>
</linearGradient>
<path opacity="0.5" fill="none" stroke="url(#SVGID_7_)" stroke-width="8" stroke-miterlimit="10" d="M448.869,310.933
	c0.18,4.106-36.572,5.777-67.545,4.198c-21.677-1.105-33.503-3.561-31.727-5.681c1.712-2.042,16.123-3.866,36.966-4.219
	C415.452,304.742,448.701,307.103,448.869,310.933z"/>
<linearGradient id="SVGID_8_" gradientUnits="userSpaceOnUse" x1="326.9069" y1="312.5123" x2="474.3699" y2="312.5123">
	<stop  offset="0" style="stop-color:#E2E900"/>
	<stop  offset="1" style="stop-color:#E900D0"/>
</linearGradient>
<path opacity="0.5" fill="none" stroke="url(#SVGID_8_)" stroke-width="5" stroke-miterlimit="10" d="M471.869,313.74
	c0.258,10.301-52.391,14.493-96.761,10.532c-31.053-2.772-47.994-8.934-45.45-14.251c2.452-5.123,23.097-9.697,52.956-10.583
	C423.997,298.211,471.628,304.132,471.869,313.74z"/>
</svg>

