<?xml version="1.0" encoding="utf-8"?>
<!-- Generator: Adobe Illustrator 17.0.0, SVG Export Plug-In . SVG Version: 6.00 Build 0)  -->
<!DOCTYPE svg PUBLIC "-//W3C//DTD SVG 1.1//EN" "http://www.w3.org/Graphics/SVG/1.1/DTD/svg11.dtd">
<svg version="1.1" id="Layer_2_1_" xmlns="http://www.w3.org/2000/svg" xmlns:xlink="http://www.w3.org/1999/xlink" x="0px" y="0px"
	 width="960px" height="560px" viewBox="0 0 960 560" enable-background="new 0 0 960 560" xml:space="preserve">
<g>
	<linearGradient id="SVGID_1_" gradientUnits="userSpaceOnUse" x1="585.6193" y1="508.1992" x2="798.8458" y2="508.1992">
		<stop  offset="0" style="stop-color:#7900AA"/>
		<stop  offset="1" style="stop-color:#350055"/>
	</linearGradient>
	<polygon fill="url(#SVGID_1_)" points="798.846,517.513 585.619,517.383 600.212,498.885 779.664,499.955 	"/>
	<linearGradient id="SVGID_2_" gradientUnits="userSpaceOnUse" x1="584" y1="540" x2="801" y2="540">
		<stop  offset="0" style="stop-color:#7900AA"/>
		<stop  offset="1" style="stop-color:#350055"/>
	</linearGradient>
	<path fill="url(#SVGID_2_)" d="M801,562.988V517H584v46h214C799,563,800,562.989,801,562.988z"/>
</g>
<g>
	
		<linearGradient id="SVGID_3_" gradientUnits="userSpaceOnUse" x1="494.1509" y1="2204.9778" x2="586.6509" y2="2204.9778" gradientTransform="matrix(-0.0145 1.0121 -0.2724 -0.0039 935.0693 -234.8826)">
		<stop  offset="0.2551" style="stop-color:#E2E900;stop-opacity:0.3"/>
		<stop  offset="0.2566" style="stop-color:#E3EA09;stop-opacity:0.3"/>
		<stop  offset="0.2646" style="stop-color:#E8EE37;stop-opacity:0.3"/>
		<stop  offset="0.2736" style="stop-color:#EDF162;stop-opacity:0.3"/>
		<stop  offset="0.2833" style="stop-color:#F1F588;stop-opacity:0.3"/>
		<stop  offset="0.2939" style="stop-color:#F5F8A8;stop-opacity:0.3"/>
		<stop  offset="0.3056" style="stop-color:#F8FAC4;stop-opacity:0.3"/>
		<stop  offset="0.3188" style="stop-color:#FBFCDA;stop-opacity:0.3"/>
		<stop  offset="0.3342" style="stop-color:#FDFDEB;stop-opacity:0.3"/>
		<stop  offset="0.3532" style="stop-color:#FEFEF6;stop-opacity:0.3"/>
		<stop  offset="0.3799" style="stop-color:#FFFFFD;stop-opacity:0.3"/>
		<stop  offset="0.4541" style="stop-color:#FFFFFF;stop-opacity:0.3"/>
		<stop  offset="1" style="stop-color:#BF6000"/>
	</linearGradient>
	<polygon fill="url(#SVGID_3_)" points="312.769,350.068 314.112,256.448 340.532,256.827 339.189,350.447 	"/>
	
		<linearGradient id="SVGID_4_" gradientUnits="userSpaceOnUse" x1="480.3898" y1="4457.8638" x2="572.8898" y2="4457.8638" gradientTransform="matrix(-0.0145 1.0121 -0.0996 -0.0014 798.9286 -236.8351)">
		<stop  offset="0.2551" style="stop-color:#E2E900;stop-opacity:0.3"/>
		<stop  offset="0.2566" style="stop-color:#E3EA09;stop-opacity:0.3"/>
		<stop  offset="0.2646" style="stop-color:#E8EE37;stop-opacity:0.3"/>
		<stop  offset="0.2736" style="stop-color:#EDF162;stop-opacity:0.3"/>
		<stop  offset="0.2833" style="stop-color:#F1F588;stop-opacity:0.3"/>
		<stop  offset="0.2939" style="stop-color:#F5F8A8;stop-opacity:0.3"/>
		<stop  offset="0.3056" style="stop-color:#F8FAC4;stop-opacity:0.3"/>
		<stop  offset="0.3188" style="stop-color:#FBFCDA;stop-opacity:0.3"/>
		<stop  offset="0.3342" style="stop-color:#FDFDEB;stop-opacity:0.3"/>
		<stop  offset="0.3532" style="stop-color:#FEFEF6;stop-opacity:0.3"/>
		<stop  offset="0.3799" style="stop-color:#FFFFFD;stop-opacity:0.3"/>
		<stop  offset="0.4541" style="stop-color:#FFFFFF;stop-opacity:0.3"/>
		<stop  offset="1" style="stop-color:#BF6000"/>
	</linearGradient>
	<polygon fill="url(#SVGID_4_)" points="342,336.557 343.342,242.937 352.999,243.076 351.656,336.695 	"/>
	
		<linearGradient id="SVGID_5_" gradientUnits="userSpaceOnUse" x1="478.8068" y1="4888.6045" x2="571.3068" y2="4888.6045" gradientTransform="matrix(-0.0145 1.0121 -0.0996 -0.0014 798.9286 -236.8351)">
		<stop  offset="0.2551" style="stop-color:#E2E900;stop-opacity:0.3"/>
		<stop  offset="0.2566" style="stop-color:#E3EA09;stop-opacity:0.3"/>
		<stop  offset="0.2646" style="stop-color:#E8EE37;stop-opacity:0.3"/>
		<stop  offset="0.2736" style="stop-color:#EDF162;stop-opacity:0.3"/>
		<stop  offset="0.2833" style="stop-color:#F1F588;stop-opacity:0.3"/>
		<stop  offset="0.2939" style="stop-color:#F5F8A8;stop-opacity:0.3"/>
		<stop  offset="0.3056" style="stop-color:#F8FAC4;stop-opacity:0.3"/>
		<stop  offset="0.3188" style="stop-color:#FBFCDA;stop-opacity:0.3"/>
		<stop  offset="0.3342" style="stop-color:#FDFDEB;stop-opacity:0.3"/>
		<stop  offset="0.3532" style="stop-color:#FEFEF6;stop-opacity:0.3"/>
		<stop  offset="0.3799" style="stop-color:#FFFFFD;stop-opacity:0.3"/>
		<stop  offset="0.4541" style="stop-color:#FFFFFF;stop-opacity:0.3"/>
		<stop  offset="1" style="stop-color:#BF6000"/>
	</linearGradient>
	<polygon fill="url(#SVGID_5_)" points="299.142,334.34 300.485,240.72 310.141,240.859 308.799,334.478 	"/>
</g>
<g>
	<g>
		<linearGradient id="SVGID_6_" gradientUnits="userSpaceOnUse" x1="465" y1="407" x2="508" y2="407">
			<stop  offset="0" style="stop-color:#7900AA"/>
			<stop  offset="1" style="stop-color:#350055"/>
		</linearGradient>
		<rect x="465" y="333" fill="url(#SVGID_6_)" width="43" height="148"/>
		<linearGradient id="SVGID_7_" gradientUnits="userSpaceOnUse" x1="445.9738" y1="428.7645" x2="476.6658" y2="428.7645">
			<stop  offset="0" style="stop-color:#7900AA"/>
			<stop  offset="1" style="stop-color:#350055"/>
		</linearGradient>
		<polygon fill="url(#SVGID_7_)" points="445.974,547 475.64,483.427 476.666,310.529 447.013,355.883 		"/>
		<linearGradient id="SVGID_8_" gradientUnits="userSpaceOnUse" x1="315" y1="447.5" x2="448" y2="447.5">
			<stop  offset="0" style="stop-color:#7900AA"/>
			<stop  offset="1" style="stop-color:#350055"/>
		</linearGradient>
		<rect x="315" y="350" fill="url(#SVGID_8_)" width="133" height="195"/>
		<linearGradient id="SVGID_9_" gradientUnits="userSpaceOnUse" x1="311.148" y1="331.2655" x2="475.429" y2="331.2655">
			<stop  offset="0" style="stop-color:#7900AA"/>
			<stop  offset="1" style="stop-color:#350055"/>
		</linearGradient>
		<polygon fill="url(#SVGID_9_)" points="475.429,310.792 372.175,310.456 311.148,351.198 449.144,352.075 		"/>
	</g>
	<g>
		<linearGradient id="SVGID_10_" gradientUnits="userSpaceOnUse" x1="335.0308" y1="380.3433" x2="334.0308" y2="450.3433">
			<stop  offset="0" style="stop-color:#79B3AA"/>
			<stop  offset="1" style="stop-color:#350055"/>
		</linearGradient>
		<path fill="url(#SVGID_10_)" d="M342.937,377c0.004,0,0.015-0.473,0.015-0.577c0-4.492-3.59-8.269-8.019-8.269
			c-4.429,0-8.019,3.844-8.019,8.336c0,0.103,0.011,0.509,0.015,0.509H326v81h17v-81H342.937z"/>
		<linearGradient id="SVGID_11_" gradientUnits="userSpaceOnUse" x1="359.0259" y1="380.6861" x2="358.0259" y2="450.6861">
			<stop  offset="0" style="stop-color:#79B3AA"/>
			<stop  offset="1" style="stop-color:#350055"/>
		</linearGradient>
		<path fill="url(#SVGID_11_)" d="M366.933,377c0.004,0,0.015-0.473,0.015-0.577c0-4.492-3.59-8.269-8.019-8.269
			s-8.019,3.844-8.019,8.336c0,0.103,0.011,0.509,0.015,0.509H350v81h17v-81H366.933z"/>
		<linearGradient id="SVGID_12_" gradientUnits="userSpaceOnUse" x1="383.021" y1="381.0289" x2="382.021" y2="451.0289">
			<stop  offset="0" style="stop-color:#79B3AA"/>
			<stop  offset="1" style="stop-color:#350055"/>
		</linearGradient>
		<path fill="url(#SVGID_12_)" d="M390.929,377c0.004,0,0.015-0.473,0.015-0.577c0-4.492-3.59-8.269-8.019-8.269
			c-4.429,0-8.019,3.844-8.019,8.336c0,0.103,0.011,0.509,0.015,0.509H374v81h17v-81H390.929z"/>
		<linearGradient id="SVGID_13_" gradientUnits="userSpaceOnUse" x1="407.516" y1="381.3788" x2="406.516" y2="451.3788">
			<stop  offset="0" style="stop-color:#79B3AA"/>
			<stop  offset="1" style="stop-color:#350055"/>
		</linearGradient>
		<path fill="url(#SVGID_13_)" d="M415.753,377c0.004,0,0.015-0.473,0.015-0.577c0-4.492-3.59-8.269-8.019-8.269
			c-4.429,0-8.019,3.844-8.019,8.336c0,0.103,0.011,0.509,0.015,0.509H399v81h16v-81H415.753z"/>
		<linearGradient id="SVGID_14_" gradientUnits="userSpaceOnUse" x1="431.0112" y1="381.7144" x2="430.0112" y2="451.7144">
			<stop  offset="0" style="stop-color:#79B3AA"/>
			<stop  offset="1" style="stop-color:#350055"/>
		</linearGradient>
		<path fill="url(#SVGID_14_)" d="M438.922,377c0.004,0,0.015-0.473,0.015-0.577c0-4.492-3.59-8.269-8.019-8.269
			s-8.019,3.844-8.019,8.336c0,0.103,0.011,0.509,0.015,0.509H422v81h17v-81H438.922z"/>
	</g>
</g>
<g>
	<linearGradient id="SVGID_15_" gradientUnits="userSpaceOnUse" x1="449.7318" y1="416.1241" x2="454.3672" y2="416.1241">
		<stop  offset="0" style="stop-color:#79B3AA"/>
		<stop  offset="1" style="stop-color:#350055"/>
	</linearGradient>
	<path fill="url(#SVGID_15_)" d="M454.012,375.156c0.001-0.002,0.003-0.2,0.003-0.289c-0.011-3.869-0.901-5.477-2.014-3.56
		c-1.142,1.968-2.092,6.903-2.095,10.985c0,0.094,0.003,0.288,0.004,0.286l-0.115,0.209l-0.063,78.965l4.635-12.479l-0.217-74.364
		L454.012,375.156z"/>
	<linearGradient id="SVGID_16_" gradientUnits="userSpaceOnUse" x1="455.822" y1="402.6519" x2="460.1479" y2="402.6519">
		<stop  offset="0" style="stop-color:#79B3AA"/>
		<stop  offset="1" style="stop-color:#350055"/>
	</linearGradient>
	<path fill="url(#SVGID_16_)" d="M459.5,365.228c0.001-0.001,0.002-0.185,0.001-0.268c-0.027-3.59-0.821-5.163-1.793-3.487
		c-0.996,1.717-1.808,6.192-1.792,9.965c0,0.087,0.004,0.266,0.005,0.264l-0.099,0.18l0.317,72.62l4.009-10.793l-0.527-68.7
		L459.5,365.228z"/>
	<linearGradient id="SVGID_17_" gradientUnits="userSpaceOnUse" x1="461.0663" y1="390.9247" x2="465.1847" y2="390.9247">
		<stop  offset="0" style="stop-color:#79B3AA"/>
		<stop  offset="1" style="stop-color:#350055"/>
	</linearGradient>
	<path fill="url(#SVGID_17_)" d="M464,356.503c0-0.001,0-0.172,0-0.249c0-3.348-0.591-4.881-1.448-3.404
		c-0.877,1.511-1.496,5.6-1.465,9.105c0.001,0.081,0.045,0.247,0.046,0.246l-0.066,0.156l0.612,67.205l3.507-9.427l-0.919-63.827
		L464,356.503z"/>
	<linearGradient id="SVGID_18_" gradientUnits="userSpaceOnUse" x1="465.9058" y1="380.2469" x2="469.6257" y2="380.2469">
		<stop  offset="0" style="stop-color:#79B3AA"/>
		<stop  offset="1" style="stop-color:#350055"/>
	</linearGradient>
	<path fill="url(#SVGID_18_)" d="M468.732,348.526c0.001-0.001,0-0.16-0.001-0.233c-0.049-3.129-0.692-4.621-1.45-3.314
		c-0.774,1.335-1.38,5.083-1.336,8.35c0.001,0.075,0.005,0.231,0.006,0.229l-0.044,0.08l0.824,62.35l2.896-7.796l-0.936-59.59
		L468.732,348.526z"/>
	<linearGradient id="SVGID_19_" gradientUnits="userSpaceOnUse" x1="469.8415" y1="371.5032" x2="473.559" y2="371.5032">
		<stop  offset="0" style="stop-color:#79B3AA"/>
		<stop  offset="1" style="stop-color:#350055"/>
	</linearGradient>
	<path fill="url(#SVGID_19_)" d="M472.402,341.885c0.001-0.001-0.001-0.151-0.002-0.219c-0.056-2.949-0.643-4.401-1.324-3.229
		c-0.694,1.196-1.226,4.672-1.174,7.743c0.001,0.071,0.006,0.217,0.006,0.216l-0.067,0.121l0.979,58.457l2.738-7.371l-1.07-55.875
		L472.402,341.885z"/>
</g>
<path opacity="0.4" fill="#FFFFFF" d="M437.039,474.848c0-7.876-7.039-14.559-17.039-17.057V457h-5.234
	c-0.942,0-1.896-0.198-2.867-0.198c-0.875,0-1.74-0.005-2.592,0.057c-2.237-12.541-15.368-22.189-31.237-22.189
	c-5.292,0-10.277,1.067-14.658,2.96c-5.132-12.921-20.88-22.334-39.518-22.334c-20.409,0-37.348,11.28-40.682,26.101
	c-3.24-0.923-6.715-1.432-10.337-1.432c-16.267,0-29.656,10.118-31.383,23.118c-15.15,1.513-26.494,7.67-26.494,15.039
	c0,8.505,15.103,15.446,33.733,15.446c5.405,0,10.508-0.568,15.037-1.568h139.653c2.654,1,5.5,1.062,8.478,1.062
	s5.824-0.062,8.478-1.062h0.003l-0.095-0.048C430.098,489.454,437.039,482.724,437.039,474.848z"/>
<g>
	<linearGradient id="SVGID_20_" gradientUnits="userSpaceOnUse" x1="240.115" y1="509.4011" x2="333.0809" y2="509.4011">
		<stop  offset="0" style="stop-color:#00647F"/>
		<stop  offset="1" style="stop-color:#1B1464"/>
	</linearGradient>
	<path fill="url(#SVGID_20_)" d="M320.966,563.042c0.528-0.073,1.062-0.113,1.607-0.082c2.863,0.166,5.686,0.787,8.549,0.953
		c0.683,0.04,1.332,0.146,1.959,0.291V454.599h-92.966v105.907c9.082-2.213,19.243-1.534,27.01-0.856
		c7.994,0.698,16.086,2.429,24.103,2.357C301.438,561.916,311.275,561.255,320.966,563.042z"/>
	<linearGradient id="SVGID_21_" gradientUnits="userSpaceOnUse" x1="-3.2096" y1="500.1698" x2="332.4517" y2="500.1698">
		<stop  offset="0" style="stop-color:#00647F"/>
		<stop  offset="1" style="stop-color:#1B1464"/>
	</linearGradient>
	<path fill="url(#SVGID_21_)" d="M-0.403,436.241c0.523,7.018,1.003,14.041,1.246,21.088c0.504,14.608,0.635,30.704-3.575,44.458
		c-0.151,0.492-0.311,0.974-0.478,1.448c0.476,7.558,1.2,15.085,1.746,22.653c0.834,11.545,0.822,22.637-0.115,34.033
		c0.006,0.061,0.012,0.121,0.018,0.182c-0.011-0.002-0.023-0.004-0.034-0.006c-0.092,1.113-0.202,2.232-0.311,3.351
		c0.987-0.31,2.048-0.486,3.195-0.487c43.738-0.054,87.573-3.6,131.268,0.355c20.91,1.893,41.671-0.353,62.576,0.512
		c6.748,0.279,13.908-0.096,21.015,0.212c1.794-1.293,3.831-2.034,5.979-2.032c3.257,0.004,6.485,0.405,9.524,1.745
		c6.16-3.422,13.632-4.572,20.848-4.739l79.952-111.196L-0.403,436.241z"/>
</g>
</svg>
